# 3ds Max Wavefront OBJ Exporter v0.99 - (c)2007 guruware
# File Created: 07.12.2020 21:42:04

mtllib npc_eye.mtl

#
# object Capsule001
#

v  30.0057 21.8167 3.7214
v  29.8922 20.8014 3.7214
v  29.8870 20.9368 3.1937
v  29.8729 21.3068 2.8074
v  29.8535 21.8122 2.6660
v  29.8341 22.3177 2.8074
v  29.8199 22.6877 3.1937
v  29.8147 22.8231 3.7214
v  29.8199 22.6877 4.2491
v  29.8341 22.3177 4.6354
v  29.8535 21.8122 4.7768
v  29.8729 21.3068 4.6354
v  29.8870 20.9368 4.2491
v  29.4820 19.8463 3.7214
v  29.4719 20.1080 2.7019
v  29.4445 20.8227 1.9557
v  29.4071 21.7992 1.6825
v  29.3697 22.7756 1.9557
v  29.3423 23.4904 2.7019
v  29.3323 23.7520 3.7214
v  29.3423 23.4904 4.7408
v  29.3697 22.7756 5.4871
v  29.4071 21.7992 5.7602
v  29.4445 20.8227 5.4871
v  29.4719 20.1080 4.7408
v  28.8029 19.0166 3.7214
v  28.7887 19.3866 2.2797
v  28.7500 20.3975 1.2243
v  28.6971 21.7784 0.8380
v  28.6441 23.1592 1.2243
v  28.6054 24.1701 2.2797
v  28.5912 24.5401 3.7214
v  28.6054 24.1701 5.1631
v  28.6441 23.1592 6.2185
v  28.6971 21.7784 6.6048
v  28.7500 20.3975 6.2185
v  28.7887 19.3866 5.1631
v  27.9013 18.3688 3.7214
v  27.8840 18.8220 1.9557
v  27.8365 20.0601 0.6631
v  27.7717 21.7513 0.1900
v  27.7069 23.4425 0.6631
v  27.6594 24.6805 1.9557
v  27.6420 25.1337 3.7214
v  27.6594 24.6805 5.4871
v  27.7069 23.4425 6.7797
v  27.7717 21.7513 7.2528
v  27.8365 20.0601 6.7797
v  27.8840 18.8220 5.4871
v  26.8387 17.9471 3.7214
v  26.8193 18.4525 1.7520
v  26.7664 19.8334 0.3103
v  26.6941 21.7197 -0.2174
v  26.6218 23.6060 0.3103
v  26.5688 24.9869 1.7520
v  26.5494 25.4923 3.7214
v  26.5688 24.9869 5.6908
v  26.6218 23.6060 7.1325
v  26.6941 21.7197 7.6602
v  26.7664 19.8334 7.1325
v  26.8193 18.4525 5.6908
v  25.6874 17.7801 3.7214
v  25.6673 18.3034 1.6825
v  25.6125 19.7330 0.1900
v  25.5376 21.6858 -0.3564
v  25.4628 23.6387 0.1900
v  25.4080 25.0682 1.6825
v  25.3879 25.5915 3.7214
v  25.4080 25.0682 5.7602
v  25.4628 23.6387 7.2528
v  25.5376 21.6858 7.7991
v  25.6125 19.7330 7.2528
v  25.6673 18.3034 5.7602
v  21.3984 17.6545 3.7214
v  21.3784 18.1778 1.6825
v  21.3235 19.6074 0.1900
v  21.2487 21.5602 -0.3564
v  21.1738 23.5130 0.1900
v  21.1190 24.9426 1.6825
v  21.0990 25.4659 3.7214
v  21.1190 24.9426 5.7602
v  21.1738 23.5130 7.2528
v  21.2487 21.5602 7.7991
v  21.3235 19.6074 7.2528
v  21.3784 18.1778 5.7602
v  20.2369 17.7537 3.7214
v  20.2175 18.2592 1.7520
v  20.1646 19.6400 0.3103
v  20.0923 21.5263 -0.2174
v  20.0200 23.4126 0.3103
v  19.9670 24.7935 1.7520
v  19.9476 25.2989 3.7214
v  19.9670 24.7935 5.6908
v  20.0200 23.4126 7.1325
v  20.0923 21.5263 7.6602
v  20.1646 19.6400 7.1325
v  20.2175 18.2592 5.6908
v  19.1443 18.1123 3.7214
v  19.1269 18.5655 1.9557
v  19.0795 19.8036 0.6631
v  19.0146 21.4948 0.1900
v  18.9498 23.1860 0.6631
v  18.9024 24.4240 1.9557
v  18.8850 24.8772 3.7214
v  18.9024 24.4240 5.4871
v  18.9498 23.1860 6.7797
v  19.0146 21.4948 7.2528
v  19.0795 19.8036 6.7797
v  19.1269 18.5655 5.4871
v  18.1951 18.7059 3.7214
v  18.1810 19.0759 2.2797
v  18.1422 20.0868 1.2243
v  18.0893 21.4677 0.8380
v  18.0363 22.8485 1.2243
v  17.9976 23.8594 2.2797
v  17.9834 24.2294 3.7214
v  17.9976 23.8594 5.1631
v  18.0363 22.8485 6.2185
v  18.0893 21.4677 6.6048
v  18.1422 20.0868 6.2185
v  18.1810 19.0759 5.1631
v  17.4541 19.4940 3.7214
v  17.4440 19.7557 2.7019
v  17.4166 20.4704 1.9557
v  17.3792 21.4469 1.6825
v  17.3418 22.4233 1.9557
v  17.3144 23.1381 2.7019
v  17.3043 23.3997 3.7214
v  17.3144 23.1381 4.7408
v  17.3418 22.4233 5.4871
v  17.3792 21.4469 5.7602
v  17.4166 20.4704 5.4871
v  17.4440 19.7557 4.7408
v  16.9716 20.4229 3.7214
v  16.9664 20.5584 3.1937
v  16.9522 20.9284 2.8074
v  16.9328 21.4338 2.6660
v  16.9135 21.9392 2.8074
v  16.8993 22.3092 3.1937
v  16.8941 22.4447 3.7214
v  16.8993 22.3092 4.2491
v  16.9135 21.9392 4.6354
v  16.9328 21.4338 4.7768
v  16.9522 20.9284 4.6354
v  16.9664 20.5584 4.2491
v  16.7806 21.4293 3.7214
# 146 vertices

vn 0.9996 0.0293 -0.0000
vn 0.9706 -0.2505 0.0000
vn 0.9692 -0.2132 -0.1394
vn 0.9653 -0.1112 -0.2415
vn 0.9599 0.0281 -0.2789
vn 0.9546 0.1674 -0.2415
vn 0.9507 0.2694 -0.1394
vn 0.9492 0.3068 -0.0000
vn 0.9507 0.2694 0.1394
vn 0.9546 0.1674 0.2415
vn 0.9599 0.0281 0.2789
vn 0.9653 -0.1112 0.2415
vn 0.9692 -0.2132 0.1394
vn 0.8760 -0.4905 0.0000
vn 0.8734 -0.4214 -0.2580
vn 0.8662 -0.2327 -0.4468
vn 0.8563 0.0251 -0.5159
vn 0.8464 0.2829 -0.4468
vn 0.8392 0.4716 -0.2580
vn 0.8365 0.5406 -0.0000
vn 0.8392 0.4716 0.2580
vn 0.8464 0.2829 0.4468
vn 0.8563 0.0251 0.5159
vn 0.8662 -0.2327 0.4468
vn 0.8734 -0.4214 0.2580
vn 0.7236 -0.6967 0.0000
vn 0.7200 -0.6006 -0.3588
vn 0.7099 -0.3381 -0.6215
vn 0.6962 0.0204 -0.7176
vn 0.6824 0.3789 -0.6215
vn 0.6724 0.6414 -0.3588
vn 0.6687 0.7375 -0.0000
vn 0.6724 0.6414 0.3588
vn 0.6824 0.3789 0.6215
vn 0.6962 0.0204 0.7176
vn 0.7099 -0.3381 0.6215
vn 0.7200 -0.6006 0.3588
vn 0.5240 -0.8562 0.0000
vn 0.5196 -0.7396 -0.4356
vn 0.5074 -0.4209 -0.7545
vn 0.4907 0.0144 -0.8712
vn 0.4740 0.4497 -0.7545
vn 0.4618 0.7683 -0.4356
vn 0.4573 0.8850 -0.0000
vn 0.4618 0.7683 0.4356
vn 0.4740 0.4497 0.7545
vn 0.4907 0.0144 0.8712
vn 0.5074 -0.4209 0.7545
vn 0.5196 -0.7396 0.4356
vn 0.2905 -0.9592 0.0000
vn 0.2856 -0.8297 -0.4837
vn 0.2720 -0.4759 -0.8377
vn 0.2535 0.0074 -0.9673
vn 0.2350 0.4907 -0.8377
vn 0.2214 0.8445 -0.4837
vn 0.2164 0.9740 -0.0000
vn 0.2214 0.8445 0.4837
vn 0.2350 0.4907 0.8377
vn 0.2535 0.0074 0.9673
vn 0.2720 -0.4759 0.8377
vn 0.2856 -0.8297 0.4837
vn 0.1029 -0.9953 0.0000
vn 0.0978 -0.8617 -0.4990
vn 0.0838 -0.4967 -0.8642
vn 0.0647 0.0019 -0.9979
vn 0.0456 0.5005 -0.8642
vn 0.0316 0.8655 -0.4990
vn 0.0265 0.9991 -0.0000
vn 0.0316 0.8655 0.4990
vn 0.0456 0.5005 0.8642
vn 0.0647 0.0019 0.9979
vn 0.0838 -0.4967 0.8642
vn 0.0978 -0.8617 0.4990
vn -0.0265 -0.9991 0.0000
vn -0.0316 -0.8655 -0.4990
vn -0.0456 -0.5005 -0.8642
vn -0.0647 -0.0019 -0.9979
vn -0.0838 0.4967 -0.8642
vn -0.0978 0.8617 -0.4990
vn -0.1029 0.9953 -0.0000
vn -0.0978 0.8617 0.4990
vn -0.0838 0.4967 0.8642
vn -0.0647 -0.0019 0.9979
vn -0.0456 -0.5005 0.8642
vn -0.0316 -0.8655 0.4990
vn -0.2164 -0.9740 0.0000
vn -0.2214 -0.8445 -0.4837
vn -0.2350 -0.4907 -0.8377
vn -0.2535 -0.0074 -0.9673
vn -0.2720 0.4759 -0.8377
vn -0.2856 0.8297 -0.4837
vn -0.2905 0.9592 -0.0000
vn -0.2856 0.8297 0.4837
vn -0.2720 0.4759 0.8377
vn -0.2535 -0.0074 0.9673
vn -0.2350 -0.4907 0.8377
vn -0.2214 -0.8445 0.4837
vn -0.4573 -0.8850 0.0000
vn -0.4618 -0.7683 -0.4356
vn -0.4740 -0.4497 -0.7545
vn -0.4907 -0.0144 -0.8712
vn -0.5074 0.4209 -0.7545
vn -0.5196 0.7396 -0.4356
vn -0.5240 0.8562 -0.0000
vn -0.5196 0.7396 0.4356
vn -0.5074 0.4209 0.7545
vn -0.4907 -0.0144 0.8712
vn -0.4740 -0.4497 0.7545
vn -0.4618 -0.7683 0.4356
vn -0.6687 -0.7375 0.0000
vn -0.6724 -0.6414 -0.3588
vn -0.6824 -0.3789 -0.6215
vn -0.6962 -0.0204 -0.7176
vn -0.7099 0.3381 -0.6215
vn -0.7200 0.6006 -0.3588
vn -0.7236 0.6967 -0.0000
vn -0.7200 0.6006 0.3588
vn -0.7099 0.3381 0.6215
vn -0.6962 -0.0204 0.7176
vn -0.6824 -0.3789 0.6215
vn -0.6724 -0.6414 0.3588
vn -0.8365 -0.5406 0.0000
vn -0.8392 -0.4716 -0.2580
vn -0.8464 -0.2829 -0.4468
vn -0.8563 -0.0251 -0.5159
vn -0.8662 0.2327 -0.4468
vn -0.8734 0.4214 -0.2580
vn -0.8760 0.4905 -0.0000
vn -0.8734 0.4214 0.2580
vn -0.8662 0.2327 0.4468
vn -0.8563 -0.0251 0.5159
vn -0.8464 -0.2829 0.4468
vn -0.8392 -0.4716 0.2580
vn -0.9492 -0.3068 0.0000
vn -0.9507 -0.2694 -0.1394
vn -0.9546 -0.1674 -0.2415
vn -0.9599 -0.0281 -0.2789
vn -0.9653 0.1112 -0.2415
vn -0.9692 0.2132 -0.1394
vn -0.9706 0.2505 -0.0000
vn -0.9692 0.2132 0.1394
vn -0.9653 0.1112 0.2415
vn -0.9599 -0.0281 0.2789
vn -0.9546 -0.1674 0.2415
vn -0.9507 -0.2694 0.1394
vn -0.9996 -0.0293 -0.0000
# 146 vertex normals

vt 0.5000 0.5000 0.0000
vt 0.6294 0.5000 0.0000
vt 0.6121 0.5647 0.0000
vt 0.5647 0.6121 0.0000
vt 0.5000 0.6294 0.0000
vt 0.4353 0.6121 0.0000
vt 0.3879 0.5647 0.0000
vt 0.3706 0.5000 0.0000
vt 0.3879 0.4353 0.0000
vt 0.4353 0.3879 0.0000
vt 0.5000 0.3706 0.0000
vt 0.5647 0.3879 0.0000
vt 0.6121 0.4353 0.0000
vt 0.7500 0.5000 0.0000
vt 0.7165 0.6250 0.0000
vt 0.6250 0.7165 0.0000
vt 0.5000 0.7500 0.0000
vt 0.3750 0.7165 0.0000
vt 0.2835 0.6250 0.0000
vt 0.2500 0.5000 0.0000
vt 0.2835 0.3750 0.0000
vt 0.3750 0.2835 0.0000
vt 0.5000 0.2500 0.0000
vt 0.6250 0.2835 0.0000
vt 0.7165 0.3750 0.0000
vt 0.8536 0.5000 0.0000
vt 0.8062 0.6768 0.0000
vt 0.6768 0.8062 0.0000
vt 0.5000 0.8536 0.0000
vt 0.3232 0.8062 0.0000
vt 0.1938 0.6768 0.0000
vt 0.1464 0.5000 0.0000
vt 0.1938 0.3232 0.0000
vt 0.3232 0.1938 0.0000
vt 0.5000 0.1464 0.0000
vt 0.6768 0.1938 0.0000
vt 0.8062 0.3232 0.0000
vt 0.9330 0.5000 0.0000
vt 0.8750 0.7165 0.0000
vt 0.7165 0.8750 0.0000
vt 0.5000 0.9330 0.0000
vt 0.2835 0.8750 0.0000
vt 0.1250 0.7165 0.0000
vt 0.0670 0.5000 0.0000
vt 0.1250 0.2835 0.0000
vt 0.2835 0.1250 0.0000
vt 0.5000 0.0670 0.0000
vt 0.7165 0.1250 0.0000
vt 0.8750 0.2835 0.0000
vt 0.9830 0.5000 0.0000
vt 0.9183 0.7415 0.0000
vt 0.7415 0.9183 0.0000
vt 0.5000 0.9830 0.0000
vt 0.2585 0.9183 0.0000
vt 0.0817 0.7415 0.0000
vt 0.0170 0.5000 0.0000
vt 0.0817 0.2585 0.0000
vt 0.2585 0.0817 0.0000
vt 0.5000 0.0170 0.0000
vt 0.7415 0.0817 0.0000
vt 0.9183 0.2585 0.0000
vt 1.0000 0.5000 0.0000
vt 0.9330 0.7500 0.0000
vt 0.7500 0.9330 0.0000
vt 0.5000 1.0000 0.0000
vt 0.2500 0.9330 0.0000
vt 0.0670 0.7500 0.0000
vt 0.0000 0.5000 0.0000
vt 0.0670 0.2500 0.0000
vt 0.2500 0.0670 0.0000
vt 0.5000 0.0000 0.0000
vt 0.7500 0.0670 0.0000
vt 0.9330 0.2500 0.0000
vt 0.0000 0.0000 0.0000
vt 0.0833 0.0000 0.0000
vt 0.0833 1.0000 0.0000
vt 0.0000 1.0000 0.0000
vt 0.1667 0.0000 0.0000
vt 0.1667 1.0000 0.0000
vt 0.2500 0.0000 0.0000
vt 0.2500 1.0000 0.0000
vt 0.3333 0.0000 0.0000
vt 0.3333 1.0000 0.0000
vt 0.4167 0.0000 0.0000
vt 0.4167 1.0000 0.0000
vt 0.5833 0.0000 0.0000
vt 0.5833 1.0000 0.0000
vt 0.6667 0.0000 0.0000
vt 0.6667 1.0000 0.0000
vt 0.7500 0.0000 0.0000
vt 0.7500 1.0000 0.0000
vt 0.8333 0.0000 0.0000
vt 0.8333 1.0000 0.0000
vt 0.9167 0.0000 0.0000
vt 0.9167 1.0000 0.0000
vt 1.0000 0.0000 0.0000
vt 1.0000 1.0000 0.0000
# 97 texture coords

o Capsule001
g Capsule001
usemtl wire_154215229
s 4
f 1/1/1 2/2/2 3/3/3 
f 1/1/1 3/3/3 4/4/4 
f 1/1/1 4/4/4 5/5/5 
f 1/1/1 5/5/5 6/6/6 
f 1/1/1 6/6/6 7/7/7 
f 1/1/1 7/7/7 8/8/8 
f 1/1/1 8/8/8 9/9/9 
f 1/1/1 9/9/9 10/10/10 
f 1/1/1 10/10/10 11/11/11 
f 1/1/1 11/11/11 12/12/12 
f 1/1/1 12/12/12 13/13/13 
f 1/1/1 13/13/13 2/2/2 
f 14/14/14 15/15/15 3/3/3 2/2/2 
f 15/15/15 16/16/16 4/4/4 3/3/3 
f 16/16/16 17/17/17 5/5/5 4/4/4 
f 17/17/17 18/18/18 6/6/6 5/5/5 
f 18/18/18 19/19/19 7/7/7 6/6/6 
f 19/19/19 20/20/20 8/8/8 7/7/7 
f 20/20/20 21/21/21 9/9/9 8/8/8 
f 21/21/21 22/22/22 10/10/10 9/9/9 
f 22/22/22 23/23/23 11/11/11 10/10/10 
f 23/23/23 24/24/24 12/12/12 11/11/11 
f 24/24/24 25/25/25 13/13/13 12/12/12 
f 25/25/25 14/14/14 2/2/2 13/13/13 
f 26/26/26 27/27/27 15/15/15 14/14/14 
f 27/27/27 28/28/28 16/16/16 15/15/15 
f 28/28/28 29/29/29 17/17/17 16/16/16 
f 29/29/29 30/30/30 18/18/18 17/17/17 
f 30/30/30 31/31/31 19/19/19 18/18/18 
f 31/31/31 32/32/32 20/20/20 19/19/19 
f 32/32/32 33/33/33 21/21/21 20/20/20 
f 33/33/33 34/34/34 22/22/22 21/21/21 
f 34/34/34 35/35/35 23/23/23 22/22/22 
f 35/35/35 36/36/36 24/24/24 23/23/23 
f 36/36/36 37/37/37 25/25/25 24/24/24 
f 37/37/37 26/26/26 14/14/14 25/25/25 
f 38/38/38 39/39/39 27/27/27 26/26/26 
f 39/39/39 40/40/40 28/28/28 27/27/27 
f 40/40/40 41/41/41 29/29/29 28/28/28 
f 41/41/41 42/42/42 30/30/30 29/29/29 
f 42/42/42 43/43/43 31/31/31 30/30/30 
f 43/43/43 44/44/44 32/32/32 31/31/31 
f 44/44/44 45/45/45 33/33/33 32/32/32 
f 45/45/45 46/46/46 34/34/34 33/33/33 
f 46/46/46 47/47/47 35/35/35 34/34/34 
f 47/47/47 48/48/48 36/36/36 35/35/35 
f 48/48/48 49/49/49 37/37/37 36/36/36 
f 49/49/49 38/38/38 26/26/26 37/37/37 
f 50/50/50 51/51/51 39/39/39 38/38/38 
f 51/51/51 52/52/52 40/40/40 39/39/39 
f 52/52/52 53/53/53 41/41/41 40/40/40 
f 53/53/53 54/54/54 42/42/42 41/41/41 
f 54/54/54 55/55/55 43/43/43 42/42/42 
f 55/55/55 56/56/56 44/44/44 43/43/43 
f 56/56/56 57/57/57 45/45/45 44/44/44 
f 57/57/57 58/58/58 46/46/46 45/45/45 
f 58/58/58 59/59/59 47/47/47 46/46/46 
f 59/59/59 60/60/60 48/48/48 47/47/47 
f 60/60/60 61/61/61 49/49/49 48/48/48 
f 61/61/61 50/50/50 38/38/38 49/49/49 
f 62/62/62 63/63/63 51/51/51 50/50/50 
f 63/63/63 64/64/64 52/52/52 51/51/51 
f 64/64/64 65/65/65 53/53/53 52/52/52 
f 65/65/65 66/66/66 54/54/54 53/53/53 
f 66/66/66 67/67/67 55/55/55 54/54/54 
f 67/67/67 68/68/68 56/56/56 55/55/55 
f 68/68/68 69/69/69 57/57/57 56/56/56 
f 69/69/69 70/70/70 58/58/58 57/57/57 
f 70/70/70 71/71/71 59/59/59 58/58/58 
f 71/71/71 72/72/72 60/60/60 59/59/59 
f 72/72/72 73/73/73 61/61/61 60/60/60 
f 73/73/73 62/62/62 50/50/50 61/61/61 
f 74/74/74 75/75/75 63/76/63 62/77/62 
f 75/75/75 76/78/76 64/79/64 63/76/63 
f 76/78/76 77/80/77 65/81/65 64/79/64 
f 77/80/77 78/82/78 66/83/66 65/81/65 
f 78/82/78 79/84/79 67/85/67 66/83/66 
f 79/84/79 80/71/80 68/65/68 67/85/67 
f 80/71/80 81/86/81 69/87/69 68/65/68 
f 81/86/81 82/88/82 70/89/70 69/87/69 
f 82/88/82 83/90/83 71/91/71 70/89/70 
f 83/90/83 84/92/84 72/93/72 71/91/71 
f 84/92/84 85/94/85 73/95/73 72/93/72 
f 85/94/85 74/96/74 62/97/62 73/95/73 
f 86/50/86 87/51/87 75/63/75 74/62/74 
f 87/51/87 88/52/88 76/64/76 75/63/75 
f 88/52/88 89/53/89 77/65/77 76/64/76 
f 89/53/89 90/54/90 78/66/78 77/65/77 
f 90/54/90 91/55/91 79/67/79 78/66/78 
f 91/55/91 92/56/92 80/68/80 79/67/79 
f 92/56/92 93/57/93 81/69/81 80/68/80 
f 93/57/93 94/58/94 82/70/82 81/69/81 
f 94/58/94 95/59/95 83/71/83 82/70/82 
f 95/59/95 96/60/96 84/72/84 83/71/83 
f 96/60/96 97/61/97 85/73/85 84/72/84 
f 97/61/97 86/50/86 74/62/74 85/73/85 
f 98/38/98 99/39/99 87/51/87 86/50/86 
f 99/39/99 100/40/100 88/52/88 87/51/87 
f 100/40/100 101/41/101 89/53/89 88/52/88 
f 101/41/101 102/42/102 90/54/90 89/53/89 
f 102/42/102 103/43/103 91/55/91 90/54/90 
f 103/43/103 104/44/104 92/56/92 91/55/91 
f 104/44/104 105/45/105 93/57/93 92/56/92 
f 105/45/105 106/46/106 94/58/94 93/57/93 
f 106/46/106 107/47/107 95/59/95 94/58/94 
f 107/47/107 108/48/108 96/60/96 95/59/95 
f 108/48/108 109/49/109 97/61/97 96/60/96 
f 109/49/109 98/38/98 86/50/86 97/61/97 
f 110/26/110 111/27/111 99/39/99 98/38/98 
f 111/27/111 112/28/112 100/40/100 99/39/99 
f 112/28/112 113/29/113 101/41/101 100/40/100 
f 113/29/113 114/30/114 102/42/102 101/41/101 
f 114/30/114 115/31/115 103/43/103 102/42/102 
f 115/31/115 116/32/116 104/44/104 103/43/103 
f 116/32/116 117/33/117 105/45/105 104/44/104 
f 117/33/117 118/34/118 106/46/106 105/45/105 
f 118/34/118 119/35/119 107/47/107 106/46/106 
f 119/35/119 120/36/120 108/48/108 107/47/107 
f 120/36/120 121/37/121 109/49/109 108/48/108 
f 121/37/121 110/26/110 98/38/98 109/49/109 
f 122/14/122 123/15/123 111/27/111 110/26/110 
f 123/15/123 124/16/124 112/28/112 111/27/111 
f 124/16/124 125/17/125 113/29/113 112/28/112 
f 125/17/125 126/18/126 114/30/114 113/29/113 
f 126/18/126 127/19/127 115/31/115 114/30/114 
f 127/19/127 128/20/128 116/32/116 115/31/115 
f 128/20/128 129/21/129 117/33/117 116/32/116 
f 129/21/129 130/22/130 118/34/118 117/33/117 
f 130/22/130 131/23/131 119/35/119 118/34/118 
f 131/23/131 132/24/132 120/36/120 119/35/119 
f 132/24/132 133/25/133 121/37/121 120/36/120 
f 133/25/133 122/14/122 110/26/110 121/37/121 
f 134/2/134 135/3/135 123/15/123 122/14/122 
f 135/3/135 136/4/136 124/16/124 123/15/123 
f 136/4/136 137/5/137 125/17/125 124/16/124 
f 137/5/137 138/6/138 126/18/126 125/17/125 
f 138/6/138 139/7/139 127/19/127 126/18/126 
f 139/7/139 140/8/140 128/20/128 127/19/127 
f 140/8/140 141/9/141 129/21/129 128/20/128 
f 141/9/141 142/10/142 130/22/130 129/21/129 
f 142/10/142 143/11/143 131/23/131 130/22/130 
f 143/11/143 144/12/144 132/24/132 131/23/131 
f 144/12/144 145/13/145 133/25/133 132/24/132 
f 145/13/145 134/2/134 122/14/122 133/25/133 
f 134/2/134 146/1/146 135/3/135 
f 135/3/135 146/1/146 136/4/136 
f 136/4/136 146/1/146 137/5/137 
f 137/5/137 146/1/146 138/6/138 
f 138/6/138 146/1/146 139/7/139 
f 139/7/139 146/1/146 140/8/140 
f 140/8/140 146/1/146 141/9/141 
f 141/9/141 146/1/146 142/10/142 
f 142/10/142 146/1/146 143/11/143 
f 143/11/143 146/1/146 144/12/144 
f 144/12/144 146/1/146 145/13/145 
f 145/13/145 146/1/146 134/2/134 
# 132 polygons - 24 triangles

