# 3ds Max Wavefront OBJ Exporter v0.99 - (c)2007 guruware
# File Created: 07.12.2020 21:43:53

mtllib player_right.mtl

#
# object Cylinder004
#

v  27.7612 3.3097 -0.7368
v  29.1271 3.3097 -1.1051
v  29.1539 3.3097 -0.7368
v  29.0479 3.3097 -1.4592
v  28.9192 3.3097 -1.7856
v  28.7460 3.3097 -2.0717
v  28.5350 3.3097 -2.3064
v  28.2942 3.3097 -2.4809
v  28.0329 3.3097 -2.5883
v  27.7612 3.3097 -2.6246
v  27.4896 3.3097 -2.5883
v  27.2283 3.3097 -2.4809
v  26.9875 3.3097 -2.3064
v  26.7765 3.3097 -2.0717
v  26.6033 3.3097 -1.7856
v  26.4746 3.3097 -1.4592
v  26.3954 3.3097 -1.1051
v  26.3686 3.3097 -0.7368
v  26.3954 3.3097 -0.3685
v  26.4746 3.3097 -0.0144
v  26.6033 3.3097 0.3120
v  26.7765 3.3097 0.5981
v  26.9875 3.3097 0.8328
v  27.2283 3.3097 1.0073
v  27.4896 3.3097 1.1147
v  27.7612 3.3097 1.1510
v  28.0329 3.3097 1.1147
v  28.2942 3.3097 1.0073
v  28.5350 3.3097 0.8328
v  28.7460 3.3097 0.5981
v  28.9192 3.3097 0.3120
v  29.0479 3.3097 -0.0144
v  29.1271 3.3097 -0.3685
v  30.4930 3.3097 -1.4734
v  30.5465 3.3097 -0.7368
v  30.3345 3.3097 -2.1816
v  30.0771 3.3097 -2.8344
v  29.7307 3.3097 -3.4065
v  29.3087 3.3097 -3.8761
v  28.8271 3.3097 -4.2250
v  28.3046 3.3097 -4.4398
v  27.7612 3.3097 -4.5124
v  27.2179 3.3097 -4.4398
v  26.6954 3.3097 -4.2250
v  26.2138 3.3097 -3.8761
v  25.7918 3.3097 -3.4065
v  25.4454 3.3097 -2.8344
v  25.1880 3.3097 -2.1816
v  25.0295 3.3097 -1.4734
v  24.9760 3.3097 -0.7368
v  25.0295 3.3097 -0.0002
v  25.1880 3.3097 0.7080
v  25.4454 3.3097 1.3608
v  25.7918 3.3097 1.9329
v  26.2138 3.3097 2.4025
v  26.6954 3.3097 2.7514
v  27.2179 3.3097 2.9662
v  27.7612 3.3097 3.0388
v  28.3046 3.3097 2.9662
v  28.8271 3.3097 2.7514
v  29.3087 3.3097 2.4025
v  29.7307 3.3097 1.9329
v  30.0771 3.3097 1.3608
v  30.3345 3.3097 0.7080
v  30.4930 3.3097 -0.0002
v  30.4930 6.4376 -1.4734
v  30.5465 6.4376 -0.7368
v  30.3345 6.4376 -2.1816
v  30.0771 6.4376 -2.8344
v  29.7307 6.4376 -3.4065
v  29.3087 6.4376 -3.8761
v  28.8271 6.4376 -4.2250
v  28.3046 6.4376 -4.4398
v  27.7612 6.4376 -4.5124
v  27.2179 6.4376 -4.4398
v  26.6954 6.4376 -4.2250
v  26.2138 6.4376 -3.8761
v  25.7918 6.4376 -3.4065
v  25.4454 6.4376 -2.8344
v  25.1880 6.4376 -2.1816
v  25.0295 6.4376 -1.4734
v  24.9760 6.4376 -0.7368
v  25.0295 6.4376 -0.0002
v  25.1880 6.4376 0.7080
v  25.4454 6.4376 1.3608
v  25.7918 6.4376 1.9329
v  26.2138 6.4376 2.4025
v  26.6954 6.4376 2.7514
v  27.2179 6.4376 2.9662
v  27.7612 6.4376 3.0388
v  28.3046 6.4376 2.9662
v  28.8271 6.4376 2.7514
v  29.3087 6.4376 2.4025
v  29.7307 6.4376 1.9329
v  30.0771 6.4376 1.3608
v  30.3345 6.4376 0.7080
v  30.4930 6.4376 -0.0002
v  30.4930 9.5654 -1.4734
v  30.5465 9.5654 -0.7368
v  30.3345 9.5654 -2.1816
v  30.0771 9.5654 -2.8344
v  29.7307 9.5654 -3.4065
v  29.3087 9.5654 -3.8761
v  28.8271 9.5654 -4.2250
v  28.3046 9.5654 -4.4398
v  27.7612 9.5654 -4.5124
v  27.2179 9.5654 -4.4398
v  26.6954 9.5654 -4.2250
v  26.2138 9.5654 -3.8761
v  25.7918 9.5654 -3.4065
v  25.4454 9.5654 -2.8344
v  25.1880 9.5654 -2.1816
v  25.0295 9.5654 -1.4734
v  24.9760 9.5654 -0.7368
v  25.0295 9.5654 -0.0002
v  25.1880 9.5654 0.7080
v  25.4454 9.5654 1.3608
v  25.7918 9.5654 1.9329
v  26.2138 9.5654 2.4025
v  26.6954 9.5654 2.7514
v  27.2179 9.5654 2.9662
v  27.7612 9.5654 3.0388
v  28.3046 9.5654 2.9662
v  28.8271 9.5654 2.7514
v  29.3087 9.5654 2.4025
v  29.7307 9.5654 1.9329
v  30.0771 9.5654 1.3608
v  30.3345 9.5654 0.7080
v  30.4930 9.5654 -0.0002
v  29.1271 9.5654 -1.1051
v  29.1539 9.5654 -0.7368
v  29.0479 9.5654 -1.4592
v  28.9192 9.5654 -1.7856
v  28.7460 9.5654 -2.0717
v  28.5350 9.5654 -2.3064
v  28.2942 9.5654 -2.4809
v  28.0329 9.5654 -2.5883
v  27.7612 9.5654 -2.6246
v  27.4896 9.5654 -2.5883
v  27.2283 9.5654 -2.4809
v  26.9875 9.5654 -2.3064
v  26.7765 9.5654 -2.0717
v  26.6033 9.5654 -1.7856
v  26.4746 9.5654 -1.4592
v  26.3954 9.5654 -1.1051
v  26.3686 9.5654 -0.7368
v  26.3954 9.5654 -0.3685
v  26.4746 9.5654 -0.0144
v  26.6033 9.5654 0.3120
v  26.7765 9.5654 0.5981
v  26.9875 9.5654 0.8328
v  27.2283 9.5654 1.0073
v  27.4896 9.5654 1.1147
v  27.7612 9.5654 1.1510
v  28.0329 9.5654 1.1147
v  28.2942 9.5654 1.0073
v  28.5350 9.5654 0.8328
v  28.7460 9.5654 0.5981
v  28.9192 9.5654 0.3120
v  29.0479 9.5654 -0.0144
v  29.1271 9.5654 -0.3685
v  27.7612 9.5654 -0.7368
# 162 vertices

vn 0.0000 -1.0000 -0.0000
vn 0.7139 -0.6857 -0.1420
vn 0.7279 -0.6857 -0.0000
vn 0.6725 -0.6857 -0.2786
vn 0.6052 -0.6857 -0.4044
vn 0.5147 -0.6857 -0.5147
vn 0.4044 -0.6857 -0.6052
vn 0.2786 -0.6857 -0.6725
vn 0.1420 -0.6857 -0.7139
vn 0.0000 -0.6857 -0.7279
vn -0.1420 -0.6857 -0.7139
vn -0.2785 -0.6857 -0.6724
vn -0.4044 -0.6857 -0.6052
vn -0.5147 -0.6857 -0.5147
vn -0.6052 -0.6857 -0.4044
vn -0.6724 -0.6858 -0.2785
vn -0.7139 -0.6857 -0.1420
vn -0.7279 -0.6857 0.0000
vn -0.7139 -0.6857 0.1420
vn -0.6725 -0.6857 0.2786
vn -0.6052 -0.6857 0.4044
vn -0.5147 -0.6857 0.5147
vn -0.4044 -0.6857 0.6052
vn -0.2785 -0.6857 0.6724
vn -0.1420 -0.6857 0.7139
vn -0.0000 -0.6857 0.7279
vn 0.1420 -0.6857 0.7139
vn 0.2786 -0.6857 0.6725
vn 0.4044 -0.6857 0.6052
vn 0.5147 -0.6857 0.5147
vn 0.6052 -0.6858 0.4044
vn 0.6724 -0.6857 0.2785
vn 0.7139 -0.6857 0.1420
vn 0.9808 0.0000 -0.1951
vn 1.0000 0.0000 -0.0000
vn 0.9239 0.0000 -0.3827
vn 0.8315 0.0000 -0.5556
vn 0.7071 0.0000 -0.7071
vn 0.5556 0.0000 -0.8315
vn 0.3827 0.0000 -0.9239
vn 0.1951 0.0000 -0.9808
vn 0.0000 0.0000 -1.0000
vn -0.1951 0.0000 -0.9808
vn -0.3827 0.0000 -0.9239
vn -0.5556 0.0000 -0.8315
vn -0.7071 0.0000 -0.7071
vn -0.8315 0.0000 -0.5556
vn -0.9239 0.0000 -0.3827
vn -0.9808 0.0000 -0.1951
vn -1.0000 0.0000 0.0000
vn -0.9808 0.0000 0.1951
vn -0.9239 0.0000 0.3827
vn -0.8315 0.0000 0.5556
vn -0.7071 0.0000 0.7071
vn -0.5556 0.0000 0.8315
vn -0.3827 0.0000 0.9239
vn -0.1951 0.0000 0.9808
vn -0.0000 0.0000 1.0000
vn 0.1951 0.0000 0.9808
vn 0.3827 0.0000 0.9239
vn 0.5556 0.0000 0.8315
vn 0.7071 0.0000 0.7071
vn 0.8315 0.0000 0.5556
vn 0.9239 0.0000 0.3827
vn 0.9808 0.0000 0.1951
vn 0.7139 0.6857 -0.1420
vn 0.7279 0.6857 -0.0000
vn 0.6725 0.6857 -0.2786
vn 0.6052 0.6857 -0.4044
vn 0.5147 0.6857 -0.5147
vn 0.4044 0.6857 -0.6052
vn 0.2786 0.6857 -0.6725
vn 0.1420 0.6857 -0.7139
vn 0.0000 0.6857 -0.7279
vn -0.1420 0.6857 -0.7139
vn -0.2785 0.6857 -0.6724
vn -0.4044 0.6857 -0.6052
vn -0.5147 0.6857 -0.5147
vn -0.6052 0.6857 -0.4044
vn -0.6724 0.6858 -0.2785
vn -0.7139 0.6857 -0.1420
vn -0.7279 0.6857 0.0000
vn -0.7139 0.6857 0.1420
vn -0.6725 0.6857 0.2786
vn -0.6052 0.6857 0.4044
vn -0.5147 0.6857 0.5147
vn -0.4044 0.6857 0.6052
vn -0.2785 0.6857 0.6724
vn -0.1420 0.6857 0.7139
vn -0.0000 0.6857 0.7279
vn 0.1420 0.6857 0.7139
vn 0.2786 0.6857 0.6725
vn 0.4044 0.6857 0.6052
vn 0.5147 0.6857 0.5147
vn 0.6052 0.6858 0.4044
vn 0.6724 0.6857 0.2785
vn 0.7139 0.6857 0.1420
vn 0.0000 1.0000 -0.0000
# 98 vertex normals

vt 0.5000 0.0000 0.0000
vt 0.7813 0.0000 0.5000
vt 0.7500 0.0000 0.5000
vt 0.8125 0.0000 0.5000
vt 0.8438 0.0000 0.5000
vt 0.8750 0.0000 0.5000
vt 0.9062 0.0000 0.5000
vt 0.9375 0.0000 0.5000
vt 0.9688 0.0000 0.5000
vt 1.0000 0.0000 0.5000
vt 0.0313 0.0000 0.5000
vt -0.0000 0.0000 0.5000
vt 0.0625 0.0000 0.5000
vt 0.0938 0.0000 0.5000
vt 0.1250 0.0000 0.5000
vt 0.1563 0.0000 0.5000
vt 0.1875 0.0000 0.5000
vt 0.2188 0.0000 0.5000
vt 0.2500 0.0000 0.5000
vt 0.2813 0.0000 0.5000
vt 0.3125 0.0000 0.5000
vt 0.3438 0.0000 0.5000
vt 0.3750 0.0000 0.5000
vt 0.4063 0.0000 0.5000
vt 0.4375 0.0000 0.5000
vt 0.4688 0.0000 0.5000
vt 0.5000 0.0000 0.5000
vt 0.5313 0.0000 0.5000
vt 0.5625 0.0000 0.5000
vt 0.5938 0.0000 0.5000
vt 0.6250 0.0000 0.5000
vt 0.6563 0.0000 0.5000
vt 0.6875 0.0000 0.5000
vt 0.7188 0.0000 0.5000
vt 0.7813 0.0000 1.0000
vt 0.7500 0.0000 1.0000
vt 0.8125 0.0000 1.0000
vt 0.8438 0.0000 1.0000
vt 0.8750 0.0000 1.0000
vt 0.9062 0.0000 1.0000
vt 0.9375 0.0000 1.0000
vt 0.9688 0.0000 1.0000
vt 1.0000 0.0000 1.0000
vt 0.0313 0.0000 1.0000
vt -0.0000 0.0000 1.0000
vt 0.0625 0.0000 1.0000
vt 0.0938 0.0000 1.0000
vt 0.1250 0.0000 1.0000
vt 0.1563 0.0000 1.0000
vt 0.1875 0.0000 1.0000
vt 0.2188 0.0000 1.0000
vt 0.2500 0.0000 1.0000
vt 0.2813 0.0000 1.0000
vt 0.3125 0.0000 1.0000
vt 0.3438 0.0000 1.0000
vt 0.3750 0.0000 1.0000
vt 0.4063 0.0000 1.0000
vt 0.4375 0.0000 1.0000
vt 0.4688 0.0000 1.0000
vt 0.5000 0.0000 1.0000
vt 0.5313 0.0000 1.0000
vt 0.5625 0.0000 1.0000
vt 0.5938 0.0000 1.0000
vt 0.6250 0.0000 1.0000
vt 0.6563 0.0000 1.0000
vt 0.6875 0.0000 1.0000
vt 0.7188 0.0000 1.0000
vt 0.7813 0.5000 1.0000
vt 0.7500 0.5000 1.0000
vt 0.8125 0.5000 1.0000
vt 0.8438 0.5000 1.0000
vt 0.8750 0.5000 1.0000
vt 0.9062 0.5000 1.0000
vt 0.9375 0.5000 1.0000
vt 0.9688 0.5000 1.0000
vt 1.0000 0.5000 1.0000
vt 0.0313 0.5000 1.0000
vt -0.0000 0.5000 1.0000
vt 0.0625 0.5000 1.0000
vt 0.0938 0.5000 1.0000
vt 0.1250 0.5000 1.0000
vt 0.1563 0.5000 1.0000
vt 0.1875 0.5000 1.0000
vt 0.2188 0.5000 1.0000
vt 0.2500 0.5000 1.0000
vt 0.2813 0.5000 1.0000
vt 0.3125 0.5000 1.0000
vt 0.3438 0.5000 1.0000
vt 0.3750 0.5000 1.0000
vt 0.4063 0.5000 1.0000
vt 0.4375 0.5000 1.0000
vt 0.4688 0.5000 1.0000
vt 0.5000 0.5000 1.0000
vt 0.5313 0.5000 1.0000
vt 0.5625 0.5000 1.0000
vt 0.5938 0.5000 1.0000
vt 0.6250 0.5000 1.0000
vt 0.6563 0.5000 1.0000
vt 0.6875 0.5000 1.0000
vt 0.7188 0.5000 1.0000
vt 0.7813 1.0000 1.0000
vt 0.7500 1.0000 1.0000
vt 0.8125 1.0000 1.0000
vt 0.8438 1.0000 1.0000
vt 0.8750 1.0000 1.0000
vt 0.9062 1.0000 1.0000
vt 0.9375 1.0000 1.0000
vt 0.9688 1.0000 1.0000
vt 1.0000 1.0000 1.0000
vt 0.0313 1.0000 1.0000
vt -0.0000 1.0000 1.0000
vt 0.0625 1.0000 1.0000
vt 0.0938 1.0000 1.0000
vt 0.1250 1.0000 1.0000
vt 0.1563 1.0000 1.0000
vt 0.1875 1.0000 1.0000
vt 0.2188 1.0000 1.0000
vt 0.2500 1.0000 1.0000
vt 0.2813 1.0000 1.0000
vt 0.3125 1.0000 1.0000
vt 0.3438 1.0000 1.0000
vt 0.3750 1.0000 1.0000
vt 0.4063 1.0000 1.0000
vt 0.4375 1.0000 1.0000
vt 0.4688 1.0000 1.0000
vt 0.5000 1.0000 1.0000
vt 0.5313 1.0000 1.0000
vt 0.5625 1.0000 1.0000
vt 0.5938 1.0000 1.0000
vt 0.6250 1.0000 1.0000
vt 0.6563 1.0000 1.0000
vt 0.6875 1.0000 1.0000
vt 0.7188 1.0000 1.0000
vt 0.7813 1.0000 0.5000
vt 0.7500 1.0000 0.5000
vt 0.8125 1.0000 0.5000
vt 0.8438 1.0000 0.5000
vt 0.8750 1.0000 0.5000
vt 0.9062 1.0000 0.5000
vt 0.9375 1.0000 0.5000
vt 0.9688 1.0000 0.5000
vt 1.0000 1.0000 0.5000
vt 0.0313 1.0000 0.5000
vt -0.0000 1.0000 0.5000
vt 0.0625 1.0000 0.5000
vt 0.0938 1.0000 0.5000
vt 0.1250 1.0000 0.5000
vt 0.1563 1.0000 0.5000
vt 0.1875 1.0000 0.5000
vt 0.2188 1.0000 0.5000
vt 0.2500 1.0000 0.5000
vt 0.2813 1.0000 0.5000
vt 0.3125 1.0000 0.5000
vt 0.3438 1.0000 0.5000
vt 0.3750 1.0000 0.5000
vt 0.4063 1.0000 0.5000
vt 0.4375 1.0000 0.5000
vt 0.4688 1.0000 0.5000
vt 0.5000 1.0000 0.5000
vt 0.5313 1.0000 0.5000
vt 0.5625 1.0000 0.5000
vt 0.5938 1.0000 0.5000
vt 0.6250 1.0000 0.5000
vt 0.6563 1.0000 0.5000
vt 0.6875 1.0000 0.5000
vt 0.7188 1.0000 0.5000
vt 0.5000 1.0000 0.0000
# 167 texture coords

o Cylinder004
g Cylinder004
usemtl wire_078030007
s 1
f 1/1/1 2/2/1 3/3/1 
f 1/1/1 4/4/1 2/2/1 
f 1/1/1 5/5/1 4/4/1 
f 1/1/1 6/6/1 5/5/1 
f 1/1/1 7/7/1 6/6/1 
f 1/1/1 8/8/1 7/7/1 
f 1/1/1 9/9/1 8/8/1 
f 1/1/1 10/10/1 9/9/1 
f 1/1/1 11/11/1 10/12/1 
f 1/1/1 12/13/1 11/11/1 
f 1/1/1 13/14/1 12/13/1 
f 1/1/1 14/15/1 13/14/1 
f 1/1/1 15/16/1 14/15/1 
f 1/1/1 16/17/1 15/16/1 
f 1/1/1 17/18/1 16/17/1 
f 1/1/1 18/19/1 17/18/1 
f 1/1/1 19/20/1 18/19/1 
f 1/1/1 20/21/1 19/20/1 
f 1/1/1 21/22/1 20/21/1 
f 1/1/1 22/23/1 21/22/1 
f 1/1/1 23/24/1 22/23/1 
f 1/1/1 24/25/1 23/24/1 
f 1/1/1 25/26/1 24/25/1 
f 1/1/1 26/27/1 25/26/1 
f 1/1/1 27/28/1 26/27/1 
f 1/1/1 28/29/1 27/28/1 
f 1/1/1 29/30/1 28/29/1 
f 1/1/1 30/31/1 29/30/1 
f 1/1/1 31/32/1 30/31/1 
f 1/1/1 32/33/1 31/32/1 
f 1/1/1 33/34/1 32/33/1 
f 1/1/1 3/3/1 33/34/1 
f 3/3/1 2/2/1 34/35/2 35/36/3 
f 2/2/1 4/4/1 36/37/4 34/35/2 
f 4/4/1 5/5/1 37/38/5 36/37/4 
f 5/5/1 6/6/1 38/39/6 37/38/5 
f 6/6/1 7/7/1 39/40/7 38/39/6 
f 7/7/1 8/8/1 40/41/8 39/40/7 
f 8/8/1 9/9/1 41/42/9 40/41/8 
f 9/9/1 10/10/1 42/43/10 41/42/9 
f 10/12/1 11/11/1 43/44/11 42/45/10 
f 11/11/1 12/13/1 44/46/12 43/44/11 
f 12/13/1 13/14/1 45/47/13 44/46/12 
f 13/14/1 14/15/1 46/48/14 45/47/13 
f 14/15/1 15/16/1 47/49/15 46/48/14 
f 15/16/1 16/17/1 48/50/16 47/49/15 
f 16/17/1 17/18/1 49/51/17 48/50/16 
f 17/18/1 18/19/1 50/52/18 49/51/17 
f 18/19/1 19/20/1 51/53/19 50/52/18 
f 19/20/1 20/21/1 52/54/20 51/53/19 
f 20/21/1 21/22/1 53/55/21 52/54/20 
f 21/22/1 22/23/1 54/56/22 53/55/21 
f 22/23/1 23/24/1 55/57/23 54/56/22 
f 23/24/1 24/25/1 56/58/24 55/57/23 
f 24/25/1 25/26/1 57/59/25 56/58/24 
f 25/26/1 26/27/1 58/60/26 57/59/25 
f 26/27/1 27/28/1 59/61/27 58/60/26 
f 27/28/1 28/29/1 60/62/28 59/61/27 
f 28/29/1 29/30/1 61/63/29 60/62/28 
f 29/30/1 30/31/1 62/64/30 61/63/29 
f 30/31/1 31/32/1 63/65/31 62/64/30 
f 31/32/1 32/33/1 64/66/32 63/65/31 
f 32/33/1 33/34/1 65/67/33 64/66/32 
f 33/34/1 3/3/1 35/36/3 65/67/33 
s 8
f 35/36/3 34/35/2 66/68/34 67/69/35 
f 34/35/2 36/37/4 68/70/36 66/68/34 
f 36/37/4 37/38/5 69/71/37 68/70/36 
f 37/38/5 38/39/6 70/72/38 69/71/37 
f 38/39/6 39/40/7 71/73/39 70/72/38 
f 39/40/7 40/41/8 72/74/40 71/73/39 
f 40/41/8 41/42/9 73/75/41 72/74/40 
f 41/42/9 42/43/10 74/76/42 73/75/41 
f 42/45/10 43/44/11 75/77/43 74/78/42 
f 43/44/11 44/46/12 76/79/44 75/77/43 
f 44/46/12 45/47/13 77/80/45 76/79/44 
f 45/47/13 46/48/14 78/81/46 77/80/45 
f 46/48/14 47/49/15 79/82/47 78/81/46 
f 47/49/15 48/50/16 80/83/48 79/82/47 
f 48/50/16 49/51/17 81/84/49 80/83/48 
f 49/51/17 50/52/18 82/85/50 81/84/49 
f 50/52/18 51/53/19 83/86/51 82/85/50 
f 51/53/19 52/54/20 84/87/52 83/86/51 
f 52/54/20 53/55/21 85/88/53 84/87/52 
f 53/55/21 54/56/22 86/89/54 85/88/53 
f 54/56/22 55/57/23 87/90/55 86/89/54 
f 55/57/23 56/58/24 88/91/56 87/90/55 
f 56/58/24 57/59/25 89/92/57 88/91/56 
f 57/59/25 58/60/26 90/93/58 89/92/57 
f 58/60/26 59/61/27 91/94/59 90/93/58 
f 59/61/27 60/62/28 92/95/60 91/94/59 
f 60/62/28 61/63/29 93/96/61 92/95/60 
f 61/63/29 62/64/30 94/97/62 93/96/61 
f 62/64/30 63/65/31 95/98/63 94/97/62 
f 63/65/31 64/66/32 96/99/64 95/98/63 
f 64/66/32 65/67/33 97/100/65 96/99/64 
f 65/67/33 35/36/3 67/69/35 97/100/65 
f 67/69/35 66/68/34 98/101/66 99/102/67 
f 66/68/34 68/70/36 100/103/68 98/101/66 
f 68/70/36 69/71/37 101/104/69 100/103/68 
f 69/71/37 70/72/38 102/105/70 101/104/69 
f 70/72/38 71/73/39 103/106/71 102/105/70 
f 71/73/39 72/74/40 104/107/72 103/106/71 
f 72/74/40 73/75/41 105/108/73 104/107/72 
f 73/75/41 74/76/42 106/109/74 105/108/73 
f 74/78/42 75/77/43 107/110/75 106/111/74 
f 75/77/43 76/79/44 108/112/76 107/110/75 
f 76/79/44 77/80/45 109/113/77 108/112/76 
f 77/80/45 78/81/46 110/114/78 109/113/77 
f 78/81/46 79/82/47 111/115/79 110/114/78 
f 79/82/47 80/83/48 112/116/80 111/115/79 
f 80/83/48 81/84/49 113/117/81 112/116/80 
f 81/84/49 82/85/50 114/118/82 113/117/81 
f 82/85/50 83/86/51 115/119/83 114/118/82 
f 83/86/51 84/87/52 116/120/84 115/119/83 
f 84/87/52 85/88/53 117/121/85 116/120/84 
f 85/88/53 86/89/54 118/122/86 117/121/85 
f 86/89/54 87/90/55 119/123/87 118/122/86 
f 87/90/55 88/91/56 120/124/88 119/123/87 
f 88/91/56 89/92/57 121/125/89 120/124/88 
f 89/92/57 90/93/58 122/126/90 121/125/89 
f 90/93/58 91/94/59 123/127/91 122/126/90 
f 91/94/59 92/95/60 124/128/92 123/127/91 
f 92/95/60 93/96/61 125/129/93 124/128/92 
f 93/96/61 94/97/62 126/130/94 125/129/93 
f 94/97/62 95/98/63 127/131/95 126/130/94 
f 95/98/63 96/99/64 128/132/96 127/131/95 
f 96/99/64 97/100/65 129/133/97 128/132/96 
f 97/100/65 67/69/35 99/102/67 129/133/97 
s 1
f 99/102/67 98/101/66 130/134/98 131/135/98 
f 98/101/66 100/103/68 132/136/98 130/134/98 
f 100/103/68 101/104/69 133/137/98 132/136/98 
f 101/104/69 102/105/70 134/138/98 133/137/98 
f 102/105/70 103/106/71 135/139/98 134/138/98 
f 103/106/71 104/107/72 136/140/98 135/139/98 
f 104/107/72 105/108/73 137/141/98 136/140/98 
f 105/108/73 106/109/74 138/142/98 137/141/98 
f 106/111/74 107/110/75 139/143/98 138/144/98 
f 107/110/75 108/112/76 140/145/98 139/143/98 
f 108/112/76 109/113/77 141/146/98 140/145/98 
f 109/113/77 110/114/78 142/147/98 141/146/98 
f 110/114/78 111/115/79 143/148/98 142/147/98 
f 111/115/79 112/116/80 144/149/98 143/148/98 
f 112/116/80 113/117/81 145/150/98 144/149/98 
f 113/117/81 114/118/82 146/151/98 145/150/98 
f 114/118/82 115/119/83 147/152/98 146/151/98 
f 115/119/83 116/120/84 148/153/98 147/152/98 
f 116/120/84 117/121/85 149/154/98 148/153/98 
f 117/121/85 118/122/86 150/155/98 149/154/98 
f 118/122/86 119/123/87 151/156/98 150/155/98 
f 119/123/87 120/124/88 152/157/98 151/156/98 
f 120/124/88 121/125/89 153/158/98 152/157/98 
f 121/125/89 122/126/90 154/159/98 153/158/98 
f 122/126/90 123/127/91 155/160/98 154/159/98 
f 123/127/91 124/128/92 156/161/98 155/160/98 
f 124/128/92 125/129/93 157/162/98 156/161/98 
f 125/129/93 126/130/94 158/163/98 157/162/98 
f 126/130/94 127/131/95 159/164/98 158/163/98 
f 127/131/95 128/132/96 160/165/98 159/164/98 
f 128/132/96 129/133/97 161/166/98 160/165/98 
f 129/133/97 99/102/67 131/135/98 161/166/98 
f 162/167/98 131/135/98 130/134/98 
f 162/167/98 130/134/98 132/136/98 
f 162/167/98 132/136/98 133/137/98 
f 162/167/98 133/137/98 134/138/98 
f 162/167/98 134/138/98 135/139/98 
f 162/167/98 135/139/98 136/140/98 
f 162/167/98 136/140/98 137/141/98 
f 162/167/98 137/141/98 138/142/98 
f 162/167/98 138/144/98 139/143/98 
f 162/167/98 139/143/98 140/145/98 
f 162/167/98 140/145/98 141/146/98 
f 162/167/98 141/146/98 142/147/98 
f 162/167/98 142/147/98 143/148/98 
f 162/167/98 143/148/98 144/149/98 
f 162/167/98 144/149/98 145/150/98 
f 162/167/98 145/150/98 146/151/98 
f 162/167/98 146/151/98 147/152/98 
f 162/167/98 147/152/98 148/153/98 
f 162/167/98 148/153/98 149/154/98 
f 162/167/98 149/154/98 150/155/98 
f 162/167/98 150/155/98 151/156/98 
f 162/167/98 151/156/98 152/157/98 
f 162/167/98 152/157/98 153/158/98 
f 162/167/98 153/158/98 154/159/98 
f 162/167/98 154/159/98 155/160/98 
f 162/167/98 155/160/98 156/161/98 
f 162/167/98 156/161/98 157/162/98 
f 162/167/98 157/162/98 158/163/98 
f 162/167/98 158/163/98 159/164/98 
f 162/167/98 159/164/98 160/165/98 
f 162/167/98 160/165/98 161/166/98 
f 162/167/98 161/166/98 131/135/98 
# 128 polygons - 64 triangles

